PathFileType	4	(X/Y/Z)	C:\Users\dbl\Desktop\20210112\20210112\bx_n_5_902.trc
DataRate	CameraRate	NumFrames	NumMarkers	Units	OrigDataRate	OrigDataStartFrame	OrigNumFrames
50.00	50.00	       8	43	mm	50.00	273	       545
Frame#	Time	Top.Head			R.Acromium			L.Acromium			Sternum			R.ASIS			L.ASIS			V.Sacral			R.Thigh.Upper			R.Thigh.Front			R.Thigh.Rear			R.Knee.Lat			R.Knee.Med			R.Shank.Upper			R.Shank.Front			R.Shank.Rear			R.Ankle.Lat			R.Midfoot.Lat			R.Toe.Lat			R.Toe.Tip			R.Toe.Med			R.Ankle.Med			R.Midfoot.Sup			R.Heel			L.Thigh.Upper			L.Thigh.Front			L.Thigh.Rear			L.Knee.Lat			L.Knee.Med			L.Shank.Upper			L.Shank.Front			L.Shank.Rear			L.Ankle.Lat			L.Midfoot.Lat			L.Toe.Lat			L.Toe.Tip			L.Toe.Med			L.Ankle.Med			L.Midfoot.Sup			L.Heel			origin1 front left			origin2 front right			origin 3 back right			origin 4 back leftt			
		X1	Y1	Z1	X2	Y2	Z2	X3	Y3	Z3	X4	Y4	Z4	X5	Y5	Z5	X6	Y6	Z6	X7	Y7	Z7	X8	Y8	Z8	X9	Y9	Z9	X10	Y10	Z10	X11	Y11	Z11	X12	Y12	Z12	X13	Y13	Z13	X14	Y14	Z14	X15	Y15	Z15	X16	Y16	Z16	X17	Y17	Z17	X18	Y18	Z18	X19	Y19	Z19	X20	Y20	Z20	X21	Y21	Z21	X22	Y22	Z22	X23	Y23	Z23	X24	Y24	Z24	X25	Y25	Z25	X26	Y26	Z26	X27	Y27	Z27	X28	Y28	Z28	X29	Y29	Z29	X30	Y30	Z30	X31	Y31	Z31	X32	Y32	Z32	X33	Y33	Z33	X34	Y34	Z34	X35	Y35	Z35	X36	Y36	Z36	X37	Y37	Z37	X38	Y38	Z38	X39	Y39	Z39	X40	Y40	Z40	X41	Y41	Z41	X42	Y42	Z42	X43	Y43	Z43	

273	5.440	-412.15952	103.85911	1756.68970	-558.02576	-75.14261	1484.87671	-572.42725	278.69489	1488.22070	-559.77887	99.69884	1282.92798	-689.39447	-13.85380	1039.86035	-698.84180	231.87856	1057.22583	-889.37341	82.59061	1075.54968	-758.73572	-80.57390	873.14056	-675.81934	-14.12713	809.09717	-766.11530	-69.58628	757.10394	-770.23700	-43.38682	615.89142	-753.04553	66.48965	573.13037	-772.09235	-40.50994	566.48810	-716.16266	9.42709	525.84808	-802.20880	-53.49081	481.50299	-761.55292	-24.08144	204.44083	-648.38641	-68.44320	160.97681	-605.28632	-73.41084	157.54492	-548.49017	-22.94042	162.14784	-600.29553	27.63594	167.38928	-724.41705	65.82934	219.30513	-675.18561	52.06823	161.46368	-794.53601	35.24597	173.68515	-786.24219	275.16479	874.77411	-679.93994	219.22617	798.04041	-778.22644	267.52228	742.88281	-794.21387	248.83714	638.55414	-750.01508	142.61212	573.59082	-787.58173	245.97122	572.43475	-727.80798	205.10246	538.39539	-816.15802	258.36261	494.81979	-771.72272	229.85286	203.00365	-660.04559	298.73318	156.68361	-623.37897	306.64322	158.64311	-556.13940	253.89589	164.15700	-593.28253	218.87059	173.84271	-717.38281	156.57808	219.44722	-675.74860	174.16933	161.04056	-797.57483	181.19725	182.19429	-528.09882	303.99542	146.46924	-518.00531	-72.91071	143.18481	-875.82361	-78.63559	141.12131	-882.66217	296.18063	144.73677	
274	5.460	-397.30664	104.00935	1745.17102	-550.79694	-75.01719	1477.61011	-565.28241	278.12274	1481.12231	-557.44092	99.49060	1275.76941	-694.28613	-13.84568	1038.29651	-703.37738	231.74646	1056.02893	-893.73090	82.34470	1076.19971	-763.60425	-80.91502	872.80597	-680.28406	-14.44008	809.16730	-770.23889	-69.93120	756.69617	-773.27429	-43.54766	615.48047	-755.88934	66.31367	572.89020	-774.87524	-40.71135	566.12946	-718.77002	9.24827	525.79895	-804.37634	-53.73180	480.99777	-761.72791	-24.21961	204.11995	-648.38928	-68.46233	160.94565	-605.25934	-73.42622	157.50786	-548.56396	-22.83181	162.20239	-600.41034	27.64145	167.43254	-724.82587	65.50206	219.23042	-675.17908	51.97913	161.53198	-794.71021	35.04481	173.65059	-790.86292	275.23068	874.43481	-684.18408	218.79207	798.17419	-782.02832	267.64551	742.37720	-797.35632	248.93686	638.13873	-752.93213	142.61662	573.30804	-790.23370	246.06293	572.03900	-730.23206	205.11885	538.38306	-818.35059	258.49298	494.28394	-771.91101	229.99110	202.93539	-660.06836	298.73297	156.66798	-623.38031	306.63712	158.66260	-556.22321	253.85576	164.13573	-593.33215	218.88304	173.83823	-717.75128	156.86487	219.57269	-675.84741	174.22971	161.19582	-797.73511	181.26811	182.15862	-528.08954	303.96365	146.48660	-517.99255	-72.86478	143.23174	-875.83545	-78.64747	141.13441	-882.69592	296.17169	144.71599	
275	5.480	-382.99484	104.26685	1733.11890	-543.53473	-74.99354	1469.87573	-558.10791	277.45935	1473.57654	-555.39142	99.29485	1268.30579	-699.28497	-13.96624	1036.76892	-708.00696	231.56044	1054.79529	-898.17200	82.05122	1076.87292	-768.34552	-81.29807	872.41870	-684.72400	-14.61036	809.14154	-774.45300	-70.16380	756.08124	-776.24493	-43.73993	615.08038	-758.71143	66.17274	572.63031	-777.51001	-40.96397	565.81366	-721.27020	9.07278	525.77637	-806.44220	-54.03004	480.45154	-761.84869	-24.34547	203.83487	-648.38098	-68.47010	160.91386	-605.24921	-73.44055	157.49698	-548.64655	-22.75184	162.25716	-600.48517	27.69365	167.45622	-725.21613	65.27004	219.15630	-675.15851	51.92866	161.60791	-794.88684	34.88750	173.59253	-795.55750	275.31393	874.05908	-688.57550	218.48148	798.30328	-785.89587	267.85065	741.81519	-800.51117	249.07928	637.67340	-755.84369	142.64555	572.95215	-792.81689	246.12425	571.57050	-732.64648	205.13036	538.32355	-820.53748	258.64383	493.72845	-771.99170	230.10999	202.86003	-660.08368	298.73346	156.64839	-623.37659	306.62933	158.65974	-556.24780	253.78139	164.13976	-593.38794	218.90576	173.83328	-718.13812	157.03693	219.73341	-675.96075	174.32027	161.35399	-797.94330	181.34944	182.14810	-528.08392	303.95023	146.50658	-517.99200	-72.81563	143.24629	-875.85645	-78.65958	141.15254	-882.70349	296.15817	144.69710	
276	5.500	-369.23642	104.57333	1720.58618	-536.21753	-74.99374	1461.64941	-550.94568	276.89185	1465.74670	-553.63379	99.10839	1260.52832	-704.18756	-14.15419	1035.18677	-712.62769	231.27315	1053.52380	-902.45990	81.71773	1077.47632	-772.98157	-81.65270	871.95520	-689.05042	-14.78954	809.13055	-778.59357	-70.31236	755.37720	-779.13275	-44.00950	614.73596	-761.46857	66.00982	572.36456	-780.02429	-41.26274	565.49738	-723.61963	8.88190	525.80908	-808.43610	-54.39681	479.88864	-761.92535	-24.47456	203.63194	-648.37836	-68.47703	160.88466	-605.27954	-73.45924	157.55533	-548.72589	-22.69889	162.30406	-600.53290	27.77138	167.46071	-725.52570	65.14668	219.13162	-675.15869	51.89091	161.69743	-795.00684	34.73959	173.48584	-800.28418	275.39404	873.63342	-693.00903	218.33286	798.43848	-789.70673	268.16409	741.30878	-803.62280	249.21425	637.15686	-758.72766	142.66605	572.58716	-795.33075	246.12389	571.05725	-735.07446	205.10652	538.19507	-822.66339	258.81891	493.16980	-772.00140	230.19774	202.74339	-660.08728	298.73340	156.62907	-623.37262	306.62292	158.63983	-556.27850	253.69324	164.18083	-593.44525	218.93309	173.84007	-718.47638	157.08904	219.92885	-676.03534	174.43083	161.52859	-798.16272	181.47961	182.10719	-528.08820	303.96597	146.52602	-517.99677	-72.79729	143.22601	-875.86865	-78.66703	141.15656	-882.68445	296.13223	144.68031	
277	5.520	-356.03580	104.89867	1707.63159	-528.93695	-74.92241	1452.94800	-543.84656	276.46317	1457.67188	-552.15521	98.91409	1252.48389	-708.90869	-14.41967	1033.53845	-717.16498	230.92862	1052.24585	-906.30865	81.39911	1077.92627	-777.56848	-81.92210	871.42590	-693.25494	-15.07288	809.13062	-782.50745	-70.51680	754.75171	-781.98700	-44.37590	614.44257	-764.17078	65.75332	572.07416	-782.50165	-41.61166	565.15344	-725.88007	8.66480	525.85907	-810.42072	-54.80917	479.29599	-762.01172	-24.61499	203.47946	-648.39886	-68.48837	160.84785	-605.32410	-73.45405	157.65746	-548.82593	-22.64175	162.33820	-600.58026	27.83352	167.47800	-725.75702	65.06803	219.15347	-675.22070	51.82803	161.81131	-795.06470	34.57257	173.31560	-804.98486	275.40945	873.14532	-697.38788	218.25819	798.51111	-793.42456	268.51865	740.88367	-806.68726	249.32098	636.63232	-761.60303	142.68820	572.23090	-797.85852	246.11781	570.57050	-737.55176	205.02458	538.02209	-824.77362	258.99692	492.63266	-772.01660	230.27289	202.58414	-660.08685	298.72946	156.60854	-623.37036	306.62064	158.62352	-556.38861	253.61285	164.25937	-593.49298	218.95100	173.86964	-718.73877	157.08907	220.14537	-676.05377	174.55054	161.69054	-798.35089	181.65169	181.99028	-528.09772	303.98956	146.52351	-517.99872	-72.80788	143.19926	-875.86011	-78.66661	141.14319	-882.64709	296.11203	144.66835	
278	5.540	-343.37460	105.24484	1694.30884	-521.82422	-74.79207	1443.86279	-536.84656	276.09644	1449.27209	-550.92926	98.69353	1244.21765	-713.45325	-14.79170	1031.88452	-721.59442	230.57788	1050.96973	-909.55585	81.15499	1078.15186	-782.11084	-82.13591	870.88519	-697.39508	-15.36641	809.02734	-786.20886	-70.89266	754.28345	-784.82941	-44.82564	614.15845	-766.84259	65.39016	571.74048	-785.00641	-41.97896	564.78094	-728.13794	8.43912	525.86566	-812.42651	-55.21159	478.66107	-762.16504	-24.79050	203.32433	-648.44330	-68.50749	160.79811	-605.34766	-73.41069	157.73749	-548.96667	-22.54487	162.36052	-600.63495	27.85086	167.52859	-725.95306	64.96137	219.20731	-675.35571	51.72112	161.96034	-795.11407	34.39655	173.11821	-809.57001	275.33005	872.60583	-701.64374	218.11247	798.44678	-797.08093	268.78622	740.44672	-809.72778	249.39694	636.09924	-764.45996	142.69785	571.88000	-800.45636	246.15814	570.14087	-740.07275	204.90392	537.86975	-826.92102	259.15033	492.11215	-772.07550	230.35939	202.40402	-660.08661	298.72110	156.59129	-623.36713	306.62134	158.62106	-556.56952	253.54626	164.36517	-593.52081	218.94160	173.92137	-718.92834	157.09996	220.34367	-676.03998	174.67152	161.80879	-798.49152	181.81239	181.80281	-528.10907	304.00153	146.48584	-518.00067	-72.83612	143.18703	-875.83521	-78.65752	141.12198	-882.60059	296.12018	144.66969	
279	5.560	-331.23456	105.61200	1680.66663	-514.96619	-74.67555	1434.50720	-529.96143	275.71317	1440.46118	-549.90411	98.42052	1235.73657	-717.85541	-15.26353	1030.29492	-725.91827	230.21039	1049.64026	-912.28790	81.02066	1078.16882	-786.54724	-82.40929	870.40643	-701.52399	-15.53213	808.72888	-789.77509	-71.45142	753.94080	-787.60504	-45.29225	613.82513	-769.47729	64.98205	571.37848	-787.51666	-42.32002	564.37878	-730.42133	8.23425	525.79718	-814.42957	-55.56843	478.04263	-762.38965	-25.02231	203.17403	-648.49127	-68.53665	160.74768	-605.33960	-73.38379	157.76917	-549.13116	-22.41434	162.38020	-600.69897	27.82568	167.60391	-726.15381	64.79927	219.28500	-675.53418	51.58917	162.14105	-795.18964	34.24467	172.96570	-813.97742	275.19989	872.05103	-705.75012	217.82227	798.24487	-800.71411	268.90018	739.90002	-812.74445	249.43381	635.53546	-767.23511	142.64075	571.53369	-803.08459	246.21681	569.73444	-742.57318	204.80020	537.76813	-829.07251	259.24265	491.56061	-772.16980	230.45529	202.21400	-660.08154	298.70865	156.59143	-623.36127	306.62216	158.62567	-556.75977	253.48962	164.47128	-593.54028	218.90919	173.97214	-719.06592	157.13708	220.48465	-676.03387	174.77376	161.87782	-798.59644	181.91420	181.59485	-528.12201	304.00812	146.43805	-518.00885	-72.87558	143.18794	-875.80261	-78.64417	141.09781	-882.55676	296.14868	144.68610	
280	5.580	-319.60910	105.99014	1666.74341	-508.38000	-74.59060	1424.92224	-523.19232	275.28067	1431.19238	-549.02789	98.03608	1227.04309	-722.12598	-15.76538	1028.77283	-730.13757	229.80434	1048.20483	-914.83728	80.99288	1078.13623	-790.84167	-82.83548	870.00342	-705.62463	-15.60129	808.28735	-793.20459	-72.11025	753.65240	-790.25989	-45.68118	613.41901	-772.05005	64.60651	571.01324	-789.96497	-42.62435	563.96240	-732.69946	8.05096	525.66742	-816.37695	-55.88530	477.50101	-762.63196	-25.27646	203.07184	-648.52557	-68.57569	160.71324	-605.30988	-73.45020	157.77449	-549.27692	-22.29969	162.40251	-600.78540	27.78735	167.67528	-726.38678	64.60033	219.37750	-675.69843	51.47298	162.33540	-795.25208	34.13006	172.88126	-818.24200	275.10956	871.51483	-709.75598	217.41283	797.94537	-804.31921	268.90118	739.24750	-815.69299	249.40523	634.93573	-769.87628	142.51811	571.18213	-805.64880	246.25339	569.31091	-744.95972	204.75366	537.69025	-831.13098	259.25656	490.93744	-772.28235	230.53694	202.01419	-660.06000	298.68097	156.61232	-623.35077	306.61594	158.62836	-556.92133	253.43433	164.54649	-593.57367	218.88054	173.99481	-719.20087	157.19397	220.56445	-676.06909	174.83170	161.90878	-798.68018	181.96080	181.42860	-528.13196	304.02438	146.42793	-518.02094	-72.91336	143.19019	-875.76953	-78.63898	141.07584	-882.53278	296.16641	144.70554	
